<svg id="logo" data-name="Layer 1" xmlns="http://www.w3.org/2000/svg" viewBox="0 0 379.43 373.02">
    <polygon class="cls-1" points="377.29 186.11 189.31 370.92 2.14 186.9 190.12 2.1 377.29 186.11"></polygon>
    <path class="cls-2" d="M810.57,484c-2.69-3.89,13.78-22,30.09-32.75,2.5-1.65,11.72-7.59,21.49-13.73,8.35-5.25,10-6.21,12.9-8.46,7.65-6,11.72-11.66,17.2-19,15.17-20.38,22.81-30.55,25.79-29.59,3.87,1.26,5.34,14,7.52,32.76.34,2.95.85,7.79,3.23,8.45,2.15.59,18.72-13.59,26.33-18.49.81,1.07-.38,4.84-2.69,10-1.6,3.6-3.54,14.07-3.22,12.67a19.71,19.71,0,0,0,3.22,8.46c3.88,5.59,7.89,4.57,12.9,9.51,7.14,7,7.51,17.57,7.52,20.07,0,5.11-1.39,4.73-1.08,9.51.38,5.62,2.4,7.29,5.38,16.9,1.79,5.81,3.23,7.12,2.68,9-36.54,23.25-58.19-.93-61.25-1.05l.53.53" transform="translate(-704.32 -272.16)"></path>
</svg>